<svg width="39" height="38" viewBox="0 0 39 38" fill="none" xmlns="http://www.w3.org/2000/svg">
<g clip-path="url(#clip0_2044_23203)">
<path d="M32.541 0.25H6.29102C3.18441 0.25 0.666016 2.7684 0.666016 5.875V32.125C0.666016 35.2316 3.18441 37.75 6.29102 37.75H32.541C35.6476 37.75 38.166 35.2316 38.166 32.125V5.875C38.166 2.7684 35.6476 0.25 32.541 0.25Z" fill="#25D366"/>
<path d="M9.67462 29.0342L10.7 24.2734C9.38208 22.1947 8.86795 19.7065 9.25409 17.2757C9.64022 14.8448 10.9001 12.6384 12.7973 11.0704C14.6945 9.50241 17.0987 8.68055 19.5587 8.75905C22.0188 8.83755 24.3656 9.81101 26.159 11.4968C27.9524 13.1826 29.069 15.4648 29.2994 17.9153C29.5298 20.3658 28.8581 22.8162 27.4103 24.8066C25.9625 26.7971 23.8382 28.1909 21.4359 28.7265C19.0335 29.2621 16.5183 28.9028 14.3621 27.7158L9.67462 29.0342Z" fill="#25D366" stroke="white" stroke-width="1.9043"/>
<path d="M23.2237 20.248C23.004 20.1016 22.7842 20.0283 22.5645 20.3213L21.6856 21.4932C21.4659 21.6396 21.3194 21.7129 21.0264 21.5664C19.9278 20.9805 18.3897 20.3213 17.0714 18.124C16.9981 17.8311 17.1446 17.6846 17.2911 17.5381L17.9503 16.5127C18.0967 16.3662 18.0235 16.2197 17.9503 16.0732L17.0714 13.9492C16.8516 13.3633 16.6319 13.4365 16.4122 13.4365H15.8262C15.6798 13.4365 15.3868 13.5098 15.0938 13.8027C13.4825 15.4141 14.1417 17.6846 15.3135 19.1494C15.5333 19.4424 16.9981 22.0791 20.1475 23.4707C22.4913 24.4961 23.004 24.3496 23.6632 24.2031C24.4688 24.1299 25.2745 23.4707 25.6407 22.8115C25.7139 22.5918 26.0801 21.6396 25.7872 21.4932" fill="white"/>
</g>
<defs>
<clipPath id="clip0_2044_23203">
<rect width="37.5" height="37.5" fill="white" transform="translate(0.666016 0.25)"/>
</clipPath>
</defs>
</svg>
