<svg width="100" height="100" viewBox="0 0 100 100" fill="none" xmlns="http://www.w3.org/2000/svg">
<path d="M75.5378 22.263L63.1523 34.6484L65.3621 36.8581L77.7475 24.4727L75.5378 22.263Z" fill="#274C77"/>
<path d="M85.9086 26.2889L82.834 26.8477L85.9574 44.0349L89.0321 43.4761L85.9086 26.2889Z" fill="#274C77"/>
<path d="M56.5216 10.9605L55.9629 14.0352L73.1501 17.1586L73.7089 14.084L56.5216 10.9605Z" fill="#274C77"/>
<path d="M38.4062 64.125L33.7188 66.1406C32.1406 66.8125 30.3594 66.8125 28.7969 66.1406L24.1094 64.125C21.8125 63.1406 20.3281 60.875 20.3281 58.375V50C20.3281 44.8281 24.5312 40.625 29.7031 40.625H32.8281C38 40.625 42.2031 44.8281 42.2031 50V58.375C42.2031 60.875 40.7188 63.1406 38.4219 64.125H38.4062Z" fill="#DDA15E"/>
<path d="M51.7812 73.4375C48.9375 70.5469 44.9844 68.75 40.625 68.75H35.9375C35.9375 71.3438 33.8438 73.4375 31.25 73.4375C28.6562 73.4375 26.5625 71.3438 26.5625 68.75H21.875C13.25 68.75 6.25 75.75 6.25 84.375V95.3125H40.625L46.875 73.4375H51.7812Z" fill="#274C77"/>
<path d="M23.4375 89.0625H26.5625C28.2812 89.0625 29.6875 90.4688 29.6875 92.1875V95.3125H23.4375V89.0625Z" fill="#DDA15E"/>
<path d="M15.625 52.7031C15.1719 52.9687 14.625 53.125 14.0625 53.125C12.3438 53.125 10.9375 51.7188 10.9375 50C10.9375 48.2812 12.3438 46.875 14.0625 46.875C14.7188 46.875 15.3281 47.0781 15.8438 47.4375" fill="#274C77"/>
<path d="M46.875 52.7031C47.3281 52.9687 47.875 53.125 48.4375 53.125C50.1562 53.125 51.5625 51.7188 51.5625 50C51.5625 48.2812 50.1562 46.875 48.4375 46.875C47.7812 46.875 47.1719 47.0781 46.6562 47.4375" fill="#274C77"/>
<path d="M31.25 95.3125H28.125V92.1875C28.125 91.3281 27.4219 90.625 26.5625 90.625H15.625C14.7656 90.625 14.0625 89.9219 14.0625 89.0625V82.8125C14.0625 82.3906 14.2344 82 14.5156 81.7031L16.5312 79.6875C17.1406 79.0781 18.125 79.0781 18.7344 79.6875C19.3437 80.2969 19.3437 81.2812 18.7344 81.8906L17.1719 83.4531V87.5H26.5469C29.1406 87.5 31.2344 89.5938 31.2344 92.1875V95.3125H31.25Z" fill="#6096BA"/>
<path d="M26.5625 65.1719L28.7812 66.125C30.3594 66.8125 32.1406 66.8125 33.7188 66.125L35.9375 65.1719V68.75C35.9375 71.3438 33.8438 73.4375 31.25 73.4375C28.6562 73.4375 26.5625 71.3438 26.5625 68.75V65.1719Z" fill="#BC6C25"/>
<path d="M40.625 95.3125L46.875 73.4375H81.25L75 95.3125" fill="#8B8C89"/>
<path d="M81.25 93.75H3.125V96.875H81.25V93.75Z" fill="#A3CEF1"/>
<path d="M41.2344 45.9062C40.3438 45.5469 39.3125 45.3125 38.0156 45.3125C31.25 45.3125 31.25 51.5625 24.4688 51.5625C22.7031 51.5625 21.3906 51.1406 20.3125 50.5156V50C20.3125 44.8281 24.5156 40.625 29.6875 40.625H32.8125C36.5156 40.625 39.7187 42.7812 41.2344 45.9062Z" fill="#274C77"/>
<path d="M42.1875 57.1875V50C42.1875 44.8281 37.9844 40.625 32.8125 40.625H29.6875C24.5156 40.625 20.3125 44.8281 20.3125 50V56.25H17.1875C16.3281 56.25 15.625 55.5469 15.625 54.6875V50C15.625 41.375 22.625 34.375 31.25 34.375C35.5625 34.375 39.4688 36.125 42.2969 38.9531C45.125 41.7813 46.875 45.6875 46.875 50V54.9688C46.875 55.7188 46.3438 56.3594 45.625 56.5L42.1875 57.1875Z" fill="#E7ECEF"/>
<path d="M31.25 59.3761C31.0781 58.5323 31.625 57.7042 32.4688 57.5323L45.3125 54.9698V50.5011C45.3125 43.0167 39.6719 36.4698 32.2188 35.9698C24.0313 35.4229 17.1875 41.9229 17.1875 50.0011V54.6886H20.3125V57.8136H17.1875C15.4688 57.8136 14.0625 56.4073 14.0625 54.6886V50.5011C14.0625 41.5636 20.6875 33.7198 29.5938 32.8917C39.8125 31.9229 48.4375 39.9698 48.4375 50.0011V54.9698C48.4375 56.4542 47.3906 57.7354 45.9219 58.0323L33.0781 60.5948C32.2344 60.7667 31.4062 60.2198 31.2344 59.3761H31.25Z" fill="#6096BA"/>
<path d="M48.4375 20.3125C52.7522 20.3125 56.25 16.8147 56.25 12.5C56.25 8.18528 52.7522 4.6875 48.4375 4.6875C44.1228 4.6875 40.625 8.18528 40.625 12.5C40.625 16.8147 44.1228 20.3125 48.4375 20.3125Z" fill="#6096BA"/>
<path d="M87.5 59.375C91.8147 59.375 95.3125 55.8772 95.3125 51.5625C95.3125 47.2478 91.8147 43.75 87.5 43.75C83.1853 43.75 79.6875 47.2478 79.6875 51.5625C79.6875 55.8772 83.1853 59.375 87.5 59.375Z" fill="#6096BA"/>
<path d="M48.4375 21.875C43.2656 21.875 39.0625 17.6719 39.0625 12.5C39.0625 7.32812 43.2656 3.125 48.4375 3.125C53.6094 3.125 57.8125 7.32812 57.8125 12.5C57.8125 17.6719 53.6094 21.875 48.4375 21.875ZM48.4375 6.25C44.9844 6.25 42.1875 9.04688 42.1875 12.5C42.1875 15.9531 44.9844 18.75 48.4375 18.75C51.8906 18.75 54.6875 15.9531 54.6875 12.5C54.6875 9.04688 51.8906 6.25 48.4375 6.25Z" fill="#A3CEF1"/>
<path d="M87.5 60.9375C82.3281 60.9375 78.125 56.7344 78.125 51.5625C78.125 46.3906 82.3281 42.1875 87.5 42.1875C92.6719 42.1875 96.875 46.3906 96.875 51.5625C96.875 56.7344 92.6719 60.9375 87.5 60.9375ZM87.5 45.3125C84.0469 45.3125 81.25 48.1094 81.25 51.5625C81.25 55.0156 84.0469 57.8125 87.5 57.8125C90.9531 57.8125 93.75 55.0156 93.75 51.5625C93.75 48.1094 90.9531 45.3125 87.5 45.3125Z" fill="#A3CEF1"/>
<path d="M84.375 26.5625C90.4156 26.5625 95.3125 21.6656 95.3125 15.625C95.3125 9.58439 90.4156 4.6875 84.375 4.6875C78.3344 4.6875 73.4375 9.58439 73.4375 15.625C73.4375 21.6656 78.3344 26.5625 84.375 26.5625Z" fill="#A3CEF1"/>
<path d="M60.9375 43.75C63.5263 43.75 65.625 41.6513 65.625 39.0625C65.625 36.4737 63.5263 34.375 60.9375 34.375C58.3487 34.375 56.25 36.4737 56.25 39.0625C56.25 41.6513 58.3487 43.75 60.9375 43.75Z" fill="#A3CEF1"/>
<path d="M84.375 28.125C77.4844 28.125 71.875 22.5156 71.875 15.625C71.875 8.73438 77.4844 3.125 84.375 3.125C91.2656 3.125 96.875 8.73438 96.875 15.625C96.875 22.5156 91.2656 28.125 84.375 28.125ZM84.375 6.25C79.2031 6.25 75 10.4531 75 15.625C75 20.7969 79.2031 25 84.375 25C89.5469 25 93.75 20.7969 93.75 15.625C93.75 10.4531 89.5469 6.25 84.375 6.25Z" fill="#6096BA"/>
<path d="M60.9375 45.3125C57.4844 45.3125 54.6875 42.5156 54.6875 39.0625C54.6875 35.6094 57.4844 32.8125 60.9375 32.8125C64.3906 32.8125 67.1875 35.6094 67.1875 39.0625C67.1875 42.5156 64.3906 45.3125 60.9375 45.3125ZM60.9375 35.9375C59.2188 35.9375 57.8125 37.3438 57.8125 39.0625C57.8125 40.7812 59.2188 42.1875 60.9375 42.1875C62.6562 42.1875 64.0625 40.7812 64.0625 39.0625C64.0625 37.3438 62.6562 35.9375 60.9375 35.9375Z" fill="#6096BA"/>
<path d="M60.9375 82.8125C61.7969 82.8125 62.5 83.5156 62.5 84.375C62.5 85.2344 61.7969 85.9375 60.9375 85.9375V82.8125Z" fill="#A3CEF1"/>
</svg>
